@startuml

title Saque Bancário

[*] --> AguardandoCartao
state "Aguardando cartão" as AguardandoCartao
state "Cartão inserido" as CartaoInserido
state "Aguardando senha" as AguardandoSenha
state "Verificando senha" as VerificandoSenha
state "Senha incorreta" as SenhaIncorreta
state "Aguardando valor" as AguardandoValor
state "Verificando saldo" as VerificarSaldo
state "Saque Autorizado" as SaqueAutorizado
state "Saque recusado" as SaqueRecusado
state "Liberando o dinheiro" as LiberandoDinheiro 
state "Devolvendo cartão" as DevolvendoCartao
state "Operação concluída" as OperacaoConcluida
state "Operação cancelada" as OperacaoCancelada

state EscolhaSenha <<choice>>
state EscolhaSaldo <<choice>>

AguardandoCartao --> CartaoInserido : inserir cartão
CartaoInserido --> AguardandoSenha : solicitar senha
AguardandoSenha --> VerificandoSenha : informar senha
VerificandoSenha --> EscolhaSenha
EscolhaSenha --> AguardandoValor : [senha correta]
EscolhaSenha --> SenhaIncorreta : [senha incorreta]
SenhaIncorreta --> AguardandoSenha : tentar novamente
SenhaIncorreta --> OperacaoCancelada : 

@enduml